<svg xmlns="http://www.w3.org/2000/svg" width="21.648" height="18.566" viewBox="0 0 21.648 18.566" fill="none">
  <path d="M 6.511 0.001 L 6.416 0 C 6.057 -0.001 5.627 -0.003 5.236 0.18 C 4.846 0.363 4.572 0.695 4.343 0.972 L 4.283 1.044 L 0.969 5.021 C 0.728 5.309 0.497 5.587 0.334 5.842 C 0.151 6.128 -0.009 6.479 0 6.913 C 0.01 7.347 0.185 7.691 0.381 7.969 C 0.555 8.217 0.798 8.484 1.051 8.761 L 8.716 17.174 C 9.03 17.519 9.326 17.843 9.603 18.073 C 9.91 18.329 10.306 18.566 10.824 18.566 C 11.342 18.566 11.738 18.329 12.045 18.073 C 12.322 17.843 12.617 17.519 12.931 17.174 L 20.596 8.761 C 20.849 8.484 21.092 8.217 21.267 7.969 C 21.462 7.691 21.638 7.347 21.647 6.913 C 21.657 6.479 21.497 6.128 21.314 5.842 C 21.151 5.587 20.919 5.309 20.679 5.021 L 17.365 1.044 L 17.305 0.972 C 17.076 0.695 16.802 0.363 16.411 0.18 C 16.021 -0.003 15.591 -0.001 15.231 0 L 15.137 0.001 L 6.511 0.001 Z M 10.824 5.534 L 7.557 1.801 L 14.09 1.801 L 10.824 5.534 Z M 12.807 6.001 L 16.057 2.286 L 19.152 6.001 L 12.807 6.001 Z M 5.591 2.286 L 8.84 6.001 L 2.495 6.001 L 5.591 2.286 Z M 9.924 15.826 L 9.924 7.801 L 2.611 7.801 L 9.924 15.826 Z M 11.724 7.801 L 11.724 15.826 L 19.036 7.801 L 11.724 7.801 Z" fill="currentColor" fill-rule="evenodd"></path>
</svg>