<svg xmlns="http://www.w3.org/2000/svg" width="15.800" height="21.800" viewBox="0 0 15.800 21.800" fill="none">
  <path d="M 9.793 1.012 C 9.844 0.607 9.615 0.218 9.237 0.066 C 8.859 -0.087 8.425 0.034 8.18 0.36 L 1.076 9.833 C 0.787 10.217 0.535 10.553 0.36 10.838 C 0.186 11.118 -0.009 11.495 0 11.94 C 0.012 12.51 0.28 13.044 0.729 13.396 C 1.078 13.67 1.497 13.74 1.826 13.77 C 2.158 13.8 2.579 13.8 3.059 13.8 L 6.88 13.8 L 6.007 20.788 C 5.956 21.193 6.184 21.582 6.563 21.735 C 6.941 21.887 7.375 21.767 7.62 21.44 L 14.724 11.968 C 15.012 11.583 15.265 11.247 15.44 10.962 C 15.613 10.682 15.809 10.305 15.799 9.861 C 15.788 9.29 15.52 8.756 15.071 8.404 C 14.721 8.13 14.303 8.06 13.974 8.03 C 13.642 8 13.221 8 12.741 8 L 8.919 8 L 9.793 1.012 Z" fill="currentColor" fill-rule="nonzero"></path>
</svg>