<svg xmlns="http://www.w3.org/2000/svg" width="18.300" height="20.869" viewBox="0 0 18.300 20.869" fill="none">
  <path d="M 8.759 0.88 C 9.384 -0.104 10.76 -0.31 11.634 0.503 C 15.73 4.317 18.3 7.977 18.3 12.069 C 18.3 16.985 14.479 20.869 9.15 20.869 C 6.517 20.869 4.224 19.971 2.583 18.393 C 0.939 16.813 0 14.599 0 12.069 C 0 9.344 1.111 6.732 3.01 4.731 C 3.638 4.069 4.638 4.098 5.261 4.658 L 5.961 5.288 L 8.759 0.88 Z M 5.65 14.069 C 5.65 15.969 7.2 17.469 9.15 17.469 C 11.1 17.469 12.65 15.969 12.65 14.069 C 12.65 12.169 11.1 10.669 9.15 8.969 C 7.2 10.669 5.65 12.169 5.65 14.069 Z" fill="currentColor" fill-rule="evenodd"></path>
</svg>