<svg xmlns="http://www.w3.org/2000/svg" width="15.800" height="20.255" viewBox="0 0 15.800 20.255" fill="none">
  <path d="M 7.9 0 C 3.537 0 0 3.537 0 7.9 C 0 10.175 0.961 12.225 2.5 13.666 L 2.5 17.475 C 2.5 17.853 2.5 18.196 2.525 18.474 C 2.552 18.763 2.613 19.112 2.828 19.429 C 3.115 19.851 3.56 20.14 4.063 20.231 C 4.439 20.299 4.784 20.213 5.058 20.12 C 5.322 20.03 5.636 19.891 5.981 19.738 L 6.966 19.3 C 7.487 19.068 7.606 19.022 7.717 19.004 C 7.838 18.983 7.962 18.983 8.083 19.004 C 8.194 19.022 8.313 19.068 8.834 19.3 L 9.819 19.738 C 10.164 19.891 10.478 20.03 10.742 20.12 C 11.016 20.213 11.361 20.299 11.737 20.231 C 12.24 20.14 12.685 19.851 12.972 19.429 C 13.187 19.112 13.248 18.763 13.275 18.474 C 13.3 18.196 13.3 17.853 13.3 17.475 L 13.3 13.666 C 14.839 12.225 15.8 10.175 15.8 7.9 C 15.8 3.537 12.263 0 7.9 0 Z M 1.8 7.9 C 1.8 4.531 4.531 1.8 7.9 1.8 C 11.269 1.8 14 4.531 14 7.9 C 14 11.269 11.269 14 7.9 14 C 4.531 14 1.8 11.269 1.8 7.9 Z M 11.5 14.934 C 10.42 15.488 9.197 15.8 7.9 15.8 C 6.603 15.8 5.38 15.488 4.3 14.934 L 4.3 18.361 C 4.3 18.433 4.374 18.482 4.441 18.452 L 6.722 17.438 C 7.472 17.105 8.328 17.105 9.078 17.438 L 11.359 18.452 C 11.426 18.482 11.5 18.433 11.5 18.361 L 11.5 14.934 Z" fill="currentColor" fill-rule="evenodd"></path>
</svg>